# xmcd
#
# Track frame offsets: 
#        150
#        13452
#        32175
#        48820
#        62447
#        73195
#        84795
#        98717
#        116165
#        131352
#        145327
#        164282
#        176352
#        190375
#        201357
#        216152
#        229432
#
# Disc length: 3238 seconds
#
# Revision: 0
# Processed by: cddbd v1.5.2PL0 Copyright (c) Steve Scherf et al.
# Submitted via: ExactAudioCopy v0.99pb3
#
DISCID=f50ca411
DTITLE=Various Artist - Pinecastle Sampler 
DYEAR=2005
DGENRE=Bluegrass
TTITLE0=The Osborne Brothers - Georgia Mules and Country Boys
TTITLE1=John Cowan - In Bristol Town One Bright Day
TTITLE2=Circuit Riders - Lonesome Wind
TTITLE3=Blueridge - Goin' Up
TTITLE4=Village Singers - This Old House
TTITLE5=Larry Stephenson - Iron Mountain Live
TTITLE6=The Churchmen - Bedside Prayer
TTITLE7=Wildfire - Can't Have One Without The Other
TTITLE8=Michelle Nixon - I Know Rain
TTITLE9=Jesse McReynolds - Are You Missing Me
TTITLE10=The Chapmans - Fire In The Canyon
TTITLE11=Chris Sexton - Coffee At Midnight
TTITLE12=Nothin' Fancy - Angels Are Hard To Forget
TTITLE13=Justin Carbone - Given The Circumstances
TTITLE14=Phil Leadbetter - California Cottenfields
TTITLE15=Aaron McDaris - When My Blue Moon Turns To Gold Again
TTITLE16=Special Consensus - The Lights Are Out
EXTD=
EXTT0=
EXTT1=
EXTT2=
EXTT3=
EXTT4=
EXTT5=
EXTT6=
EXTT7=
EXTT8=
EXTT9=
EXTT10=
EXTT11=
EXTT12=
EXTT13=
EXTT14=
EXTT15=
EXTT16=
PLAYORDER=
